<svg width="720" height="289" xmlns="http://www.w3.org/2000/svg" xmlns:xlink="http://www.w3.org/1999/xlink" overflow="hidden"><defs><filter id="fx0" x="-10%" y="-10%" width="120%" height="120%" filterUnits="userSpaceOnUse" primitiveUnits="userSpaceOnUse"><feComponentTransfer color-interpolation-filters="sRGB"><feFuncR type="discrete" tableValues="0 0"/><feFuncG type="discrete" tableValues="0 0"/><feFuncB type="discrete" tableValues="0 0"/><feFuncA type="linear" slope="0.4" intercept="0"/></feComponentTransfer><feGaussianBlur stdDeviation="3.12914 3.12914"/></filter><filter id="fx1" x="-10%" y="-10%" width="120%" height="120%" filterUnits="userSpaceOnUse" primitiveUnits="userSpaceOnUse"><feComponentTransfer color-interpolation-filters="sRGB"><feFuncR type="discrete" tableValues="0 0"/><feFuncG type="discrete" tableValues="0 0"/><feFuncB type="discrete" tableValues="0 0"/><feFuncA type="linear" slope="0.4" intercept="0"/></feComponentTransfer><feGaussianBlur stdDeviation="3.12914 3.12914"/></filter><clipPath id="clip2"><rect x="259" y="43" width="720" height="289"/></clipPath><clipPath id="clip3"><rect x="16" y="11" width="147" height="57"/></clipPath><clipPath id="clip4"><rect x="0" y="0" width="611" height="291"/></clipPath><clipPath id="clip5"><rect x="16" y="13" width="52" height="50"/></clipPath><clipPath id="clip6"><rect x="0" y="0" width="287" height="291"/></clipPath></defs><g clip-path="url(#clip2)" transform="translate(-259 -43)"><g clip-path="url(#clip3)" filter="url(#fx0)" transform="translate(258 42)"><g clip-path="url(#clip4)"><path d="M79.872-12.544C80.9813-11.8613 81.856-10.9653 82.496-9.856 83.136-8.74667 83.456-7.59467 83.456-6.4 83.456-4.864 82.944-3.456 81.92-2.176 80.64-0.64 78.6773 0.128 76.032 0.128 73.984 0.128 72.1067-0.341333 70.4-1.28 64.256-4.77867 61.184-11.904 61.184-22.656 61.184-25.728 60.1813-28.16 58.176-29.952 56.1707-31.744 53.2907-32.64 49.536-32.64L25.6-32.64 25.6-7.808C25.6-5.504 24.9813-3.62667 23.744-2.176 22.5067-0.725333 20.864 0 18.816 0 16.3413 0 14.1867-0.746667 12.352-2.24 10.5173-3.73333 9.6-5.58933 9.6-7.808L9.6-81.792C9.6-84.0107 10.3467-85.8667 11.84-87.36 13.3333-88.8533 15.1893-89.6 17.408-89.6L54.272-89.6C58.7093-89.6 62.8907-88.4053 66.816-86.016 70.7413-83.6267 73.8773-80.3413 76.224-76.16 78.5707-71.9787 79.744-67.2853 79.744-62.08 79.744-57.8133 78.592-53.6533 76.288-49.6 73.984-45.5467 70.9973-42.3253 67.328-39.936 72.704-36.1813 75.648-31.1467 76.16-24.832 76.416-23.4667 76.544-22.144 76.544-20.864 76.8853-18.2187 77.2267-16.32 77.568-15.168 77.9093-14.016 78.6773-13.1413 79.872-12.544ZM53.632-45.824C55.168-45.824 56.6613-46.5493 58.112-48 59.5627-49.4507 60.7573-51.392 61.696-53.824 62.6347-56.256 63.104-58.88 63.104-61.696 63.104-64.0853 62.6347-66.2827 61.696-68.288 60.7573-70.2933 59.5627-71.8933 58.112-73.088 56.6613-74.2827 55.168-74.88 53.632-74.88L25.6-74.88 25.6-45.824ZM151.973-69.76C154.192-69.76 156.026-69.0347 157.477-67.584 158.928-66.1333 159.653-64.256 159.653-61.952L159.653-7.808C159.653-5.58933 158.928-3.73333 157.477-2.24 156.026-0.746667 154.192 0 151.973 0 149.754 0 147.941-0.725333 146.533-2.176 145.125-3.62667 144.378-5.46133 144.293-7.68 142.16-5.20533 139.28-3.09333 135.653-1.344 132.026 0.405333 128.208 1.28 124.197 1.28 118.309 1.28 112.976-0.234667 108.197-3.264 103.418-6.29333 99.6425-10.496 96.8692-15.872 94.0958-21.248 92.7092-27.3493 92.7092-34.176 92.7092-41.0027 94.0745-47.1253 96.8052-52.544 99.5358-57.9627 103.269-62.1867 108.005-65.216 112.741-68.2453 117.968-69.76 123.685-69.76 127.781-69.76 131.621-69.0133 135.205-67.52 138.789-66.0267 141.818-64.128 144.293-61.824L144.293-61.952C144.293-64.1707 145.018-66.0267 146.469-67.52 147.92-69.0133 149.754-69.76 151.973-69.76ZM126.117-12.8C131.664-12.8 136.186-14.8267 139.685-18.88 143.184-22.9333 144.933-28.032 144.933-34.176 144.933-40.32 143.184-45.44 139.685-49.536 136.186-53.632 131.664-55.68 126.117-55.68 120.656-55.68 116.176-53.632 112.677-49.536 109.178-45.44 107.429-40.32 107.429-34.176 107.429-28.032 109.157-22.9333 112.613-18.88 116.069-14.8267 120.57-12.8 126.117-12.8ZM232.181-94.72C234.4-94.72 236.235-93.9947 237.685-92.544 239.136-91.0933 239.861-89.216 239.861-86.912L239.861-7.808C239.861-5.58933 239.136-3.73333 237.685-2.24 236.235-0.746667 234.4 0 232.181 0 229.963 0 228.149-0.725333 226.742-2.176 225.333-3.62667 224.587-5.46133 224.501-7.68 222.368-5.20533 219.488-3.09333 215.861-1.344 212.235 0.405333 208.416 1.28 204.406 1.28 198.517 1.28 193.184-0.234667 188.406-3.264 183.627-6.29333 179.851-10.496 177.077-15.872 174.304-21.248 172.917-27.3493 172.917-34.176 172.917-41.0027 174.283-47.1253 177.014-52.544 179.744-57.9627 183.477-62.1867 188.214-65.216 192.949-68.2453 198.176-69.76 203.893-69.76 207.99-69.76 211.829-69.0133 215.413-67.52 218.997-66.0267 222.027-64.128 224.501-61.824L224.501-86.912C224.501-89.1307 225.227-90.9867 226.677-92.48 228.128-93.9733 229.963-94.72 232.181-94.72ZM206.326-12.8C211.872-12.8 216.395-14.8267 219.893-18.88 223.392-22.9333 225.141-28.032 225.141-34.176 225.141-40.32 223.392-45.44 219.893-49.536 216.395-53.632 211.872-55.68 206.326-55.68 200.864-55.68 196.384-53.632 192.885-49.536 189.387-45.44 187.637-40.32 187.637-34.176 187.637-28.032 189.365-22.9333 192.822-18.88 196.277-14.8267 200.779-12.8 206.326-12.8ZM307.782-68.48C310-68.48 311.835-67.7333 313.286-66.24 314.736-64.7467 315.462-62.8907 315.462-60.672L315.462-6.272C315.462 4.82133 312.475 12.9067 306.502 17.984 300.528 23.0613 292.55 25.6 282.566 25.6 279.664 25.6 276.699 25.3653 273.67 24.896 270.641 24.4267 268.187 23.808 266.31 23.04 262.128 21.248 260.038 18.7733 260.038 15.616 260.038 15.0187 260.166 14.336 260.422 13.568 260.934 11.6907 261.808 10.2613 263.046 9.28 264.283 8.29867 265.627 7.808 267.078 7.808 267.931 7.808 268.742 7.936 269.51 8.192 270.107 8.448 271.152 8.87467 272.646 9.472 274.139 10.0693 275.718 10.56 277.382 10.944 279.046 11.328 280.774 11.52 282.566 11.52 288.624 11.52 293.083 10.2187 295.942 7.616 298.8 5.01333 300.23 0.554666 300.23-5.76L300.23-7.04C295.792-1.49333 288.88 1.28 279.494 1.28 275.056 1.28 271.131 0.234667 267.718-1.856 264.305-3.94667 261.659-6.848 259.782-10.56 257.904-14.272 256.966-18.5173 256.966-23.296L256.966-60.672C256.966-62.8907 257.691-64.7467 259.142-66.24 260.592-67.7333 262.427-68.48 264.646-68.48 266.864-68.48 268.699-67.7333 270.15-66.24 271.6-64.7467 272.326-62.8907 272.326-60.672L272.326-27.904C272.326-22.528 273.499-18.6667 275.846-16.32 278.192-13.9733 281.627-12.8 286.15-12.8 290.587-12.8 294.022-14.1013 296.454-16.704 298.886-19.3067 300.102-23.04 300.102-27.904L300.102-60.672C300.102-62.8907 300.827-64.7467 302.278-66.24 303.728-67.7333 305.563-68.48 307.782-68.48ZM397.81-34.176C397.81-27.3493 396.274-21.2267 393.202-15.808 390.13-10.3893 385.927-6.18667 380.594-3.2 375.261-0.213333 369.394 1.28 362.994 1.28 356.509 1.28 350.621-0.213333 345.33-3.2 340.039-6.18667 335.858-10.3893 332.786-15.808 329.714-21.2267 328.178-27.3493 328.178-34.176 328.178-41.0027 329.714-47.1253 332.786-52.544 335.858-57.9627 340.039-62.1867 345.33-65.216 350.621-68.2453 356.509-69.76 362.994-69.76 369.394-69.76 375.261-68.2453 380.594-65.216 385.927-62.1867 390.13-57.9627 393.202-52.544 396.274-47.1253 397.81-41.0027 397.81-34.176ZM382.45-34.176C382.45-38.3573 381.575-42.0907 379.826-45.376 378.077-48.6613 375.73-51.2 372.786-52.992 369.842-54.784 366.578-55.68 362.994-55.68 359.41-55.68 356.146-54.784 353.202-52.992 350.258-51.2 347.911-48.6613 346.162-45.376 344.413-42.0907 343.538-38.3573 343.538-34.176 343.538-29.9947 344.413-26.2827 346.162-23.04 347.911-19.7973 350.258-17.28 353.202-15.488 356.146-13.696 359.41-12.8 362.994-12.8 366.578-12.8 369.842-13.696 372.786-15.488 375.73-17.28 378.077-19.7973 379.826-23.04 381.575-26.2827 382.45-29.9947 382.45-34.176ZM417.864-0.128C415.39-0.128 413.491-0.789333 412.168-2.112 410.846-3.43467 410.184-5.33333 410.184-7.808L410.184-9.984C410.184-12.4587 410.846-14.3573 412.168-15.68 413.491-17.0027 415.39-17.664 417.864-17.664L419.528-17.664C422.003-17.664 423.902-17.0027 425.224-15.68 426.547-14.3573 427.208-12.4587 427.208-9.984L427.208-7.808C427.208-5.33333 426.547-3.43467 425.224-2.112 423.902-0.789333 422.003-0.128 419.528-0.128Z" fill="#6A2D97" transform="matrix(1 0 0 1 88.2603 172)"/></g></g><text fill="#6A2D97" font-family="Quicksand,Quicksand_MSFontService,sans-serif" font-weight="700" font-size="128" transform="matrix(1 0 0 1 346.26 207)">Radyo.</text><g clip-path="url(#clip5)" filter="url(#fx1)" transform="translate(693 42)"><g clip-path="url(#clip6)"><path d="M63.744-69.76C65.9627-69.76 67.7973-69.0347 69.248-67.584 70.6987-66.1333 71.424-64.256 71.424-61.952L71.424-7.808C71.424-5.58933 70.6987-3.73333 69.248-2.24 67.7973-0.746667 65.9627 0 63.744 0 61.5253 0 59.712-0.725333 58.304-2.176 56.896-3.62667 56.1493-5.46133 56.064-7.68 53.9307-5.20533 51.0507-3.09333 47.424-1.344 43.7973 0.405333 39.9787 1.28 35.968 1.28 30.08 1.28 24.7467-0.234667 19.968-3.264 15.1893-6.29333 11.4133-10.496 8.64-15.872 5.86667-21.248 4.48-27.3493 4.48-34.176 4.48-41.0027 5.84533-47.1253 8.576-52.544 11.3067-57.9627 15.04-62.1867 19.776-65.216 24.512-68.2453 29.7387-69.76 35.456-69.76 39.552-69.76 43.392-69.0133 46.976-67.52 50.56-66.0267 53.5893-64.128 56.064-61.824L56.064-61.952C56.064-64.1707 56.7893-66.0267 58.24-67.52 59.6907-69.0133 61.5253-69.76 63.744-69.76ZM37.888-12.8C43.4347-12.8 47.9573-14.8267 51.456-18.88 54.9547-22.9333 56.704-28.032 56.704-34.176 56.704-40.32 54.9547-45.44 51.456-49.536 47.9573-53.632 43.4347-55.68 37.888-55.68 32.4267-55.68 27.9467-53.632 24.448-49.536 20.9493-45.44 19.2-40.32 19.2-34.176 19.2-28.032 20.928-22.9333 24.384-18.88 27.84-14.8267 32.3413-12.8 37.888-12.8ZM102.992-7.808C102.992-5.58933 102.267-3.73333 100.816-2.24 99.3657-0.746667 97.531 0 95.3123 0 93.0937 0 91.259-0.746667 89.8083-2.24 88.3577-3.73333 87.6323-5.58933 87.6323-7.808L87.6323-60.672C87.6323-62.8907 88.3577-64.7467 89.8083-66.24 91.259-67.7333 93.0937-68.48 95.3123-68.48 97.531-68.48 99.3657-67.7333 100.816-66.24 102.267-64.7467 102.992-62.8907 102.992-60.672ZM95.1843-76.8C92.283-76.8 90.235-77.2693 89.0403-78.208 87.8457-79.1467 87.2483-80.8107 87.2483-83.2L87.2483-85.632C87.2483-88.0213 87.8883-89.6853 89.1683-90.624 90.4483-91.5627 92.4963-92.032 95.3123-92.032 98.299-92.032 100.39-91.5627 101.584-90.624 102.779-89.6853 103.376-88.0213 103.376-85.632L103.376-83.2C103.376-80.7253 102.758-79.04 101.52-78.144 100.283-77.248 98.171-76.8 95.1843-76.8Z" fill="#6A2D97" transform="matrix(1 0 0 1 88.1041 172)"/></g></g><text fill="#6A2D97" font-family="Quicksand,Quicksand_MSFontService,sans-serif" font-weight="700" font-size="128" transform="matrix(1 0 0 1 781.104 207)">ai</text></g></svg>