<svg xmlns="http://www.w3.org/2000/svg" xmlns:xlink="http://www.w3.org/1999/xlink" viewBox="0 0 541.59 158"><defs><clipPath id="a" transform="translate(-87.26 -54.19)"><rect width="720" height="289" style="fill:none"/></clipPath><clipPath id="b" transform="translate(-87.26 -54.19)"><rect x="15" y="10" width="147" height="57" style="fill:none"/></clipPath><filter id="c" name="fx0"><feComponentTransfer><feFuncR type="discrete" tableValues="0 0"/><feFuncG type="discrete" tableValues="0 0"/><feFuncB type="discrete" tableValues="0 0"/><feFuncA type="linear" slope="0.4"/></feComponentTransfer><feGaussianBlur stdDeviation="3.13 3.13"/></filter><clipPath id="d" transform="translate(-87.26 -54.19)"><rect x="-1" y="-1" width="611" height="291" style="fill:none"/></clipPath><clipPath id="e" transform="translate(-87.26 -54.19)"><rect x="450" y="12" width="52" height="50" style="fill:none"/></clipPath><filter id="f" name="fx1"><feComponentTransfer><feFuncR type="discrete" tableValues="0 0"/><feFuncG type="discrete" tableValues="0 0"/><feFuncB type="discrete" tableValues="0 0"/><feFuncA type="linear" slope="0.4"/></feComponentTransfer><feGaussianBlur stdDeviation="3.13 3.13"/></filter><clipPath id="g" transform="translate(-87.26 -54.19)"><rect x="434" y="-1" width="287" height="291" style="fill:none"/></clipPath></defs><g style="clip-path:url(#a)"><g style="clip-path:url(#b)"><g style="filter:url(#c)"><g style="clip-path:url(#d)"><path d="M167.27,158.11a7.53,7.53,0,0,1,2.63,2.69,6.83,6.83,0,0,1,1,3.46,6.66,6.66,0,0,1-1.54,4.23q-1.92,2.3-5.89,2.3a11.48,11.48,0,0,1-5.63-1.41q-9.21-5.25-9.22-21.39a9.31,9.31,0,0,0-3-7.3q-3-2.69-8.64-2.69H113v24.85a8.39,8.39,0,0,1-1.86,5.64,6.14,6.14,0,0,1-4.92,2.17,9.91,9.91,0,0,1-6.47-2.24A6.92,6.92,0,0,1,97,162.85v-74A7.65,7.65,0,0,1,104.81,81h36.86a23.75,23.75,0,0,1,12.55,3.59,26.45,26.45,0,0,1,9.4,9.86,28.25,28.25,0,0,1,3.52,14.09A25,25,0,0,1,163.69,121a27.64,27.64,0,0,1-9,9.67,19.63,19.63,0,0,1,8.83,15.11,21.22,21.22,0,0,1,.38,4,42,42,0,0,0,1,5.7A4.22,4.22,0,0,0,167.27,158.11ZM141,125a6.36,6.36,0,0,0,4.47-2.17A16.58,16.58,0,0,0,149,117a21.81,21.81,0,0,0,1.4-7.86,15.4,15.4,0,0,0-1.4-6.58,13.49,13.49,0,0,0-3.58-4.79A7,7,0,0,0,141,96H113v29Zm98.52-22.93a7.29,7.29,0,0,1,5.38,2.13,7.45,7.45,0,0,1,2.12,5.5v52.87a7.52,7.52,0,0,1-2.12,5.44,7.18,7.18,0,0,1-5.38,2.19,7.05,7.05,0,0,1-5.31-2.13A7.81,7.81,0,0,1,232,162.7a27.19,27.19,0,0,1-19.62,8.75A28.57,28.57,0,0,1,196.75,167a31.1,31.1,0,0,1-11.06-12.31,38.41,38.41,0,0,1-4.06-17.88,39.24,39.24,0,0,1,4-17.93,30.68,30.68,0,0,1,10.93-12.38,27.84,27.84,0,0,1,15.31-4.44,29,29,0,0,1,11.26,2.19,29.59,29.59,0,0,1,8.87,5.56v-.12a7.52,7.52,0,0,1,2.12-5.44A7.18,7.18,0,0,1,239.5,102.07ZM213.38,158.2A17.12,17.12,0,0,0,227,152.12q5.24-6.08,5.24-15.3T227,121.46a17.92,17.92,0,0,0-27,0q-5.25,6.15-5.25,15.36t5.18,15.3A16.93,16.93,0,0,0,213.38,158.2ZM319.5,77.4a7.29,7.29,0,0,1,5.38,2.13A7.47,7.47,0,0,1,327,85v77.25a7.52,7.52,0,0,1-2.12,5.44,7.18,7.18,0,0,1-5.38,2.19,7.05,7.05,0,0,1-5.31-2.13,7.83,7.83,0,0,1-2.19-5.37,25.75,25.75,0,0,1-8.44,6.18,25.4,25.4,0,0,1-11.18,2.57,28.57,28.57,0,0,1-15.63-4.44,31.1,31.1,0,0,1-11.06-12.31,38.41,38.41,0,0,1-4.07-17.88,39.26,39.26,0,0,1,4-17.94,30.71,30.71,0,0,1,10.93-12.37,27.84,27.84,0,0,1,15.31-4.44A28.89,28.89,0,0,1,303.12,104a29.64,29.64,0,0,1,8.88,5.56V85a7.52,7.52,0,0,1,2.12-5.44A7.18,7.18,0,0,1,319.5,77.4Zm-25.91,80.8a17.08,17.08,0,0,0,13.56-6.08q5.25-6.08,5.25-15.3t-5.25-15.36a17.91,17.91,0,0,0-27,0q-5.25,6.15-5.25,15.36t5.18,15.3A16.93,16.93,0,0,0,293.59,158.2ZM395,102.36a7.67,7.67,0,0,1,5.73,2.33,8,8,0,0,1,2.27,5.8V165q0,16.4-8.82,23.89t-23.57,7.5a56.39,56.39,0,0,1-8.77-.7,33.12,33.12,0,0,1-7.24-1.82q-6.18-2.66-6.18-7.31a6.52,6.52,0,0,1,.38-2,7.74,7.74,0,0,1,2.58-4.22,6.24,6.24,0,0,1,4-1.45,7.63,7.63,0,0,1,2.4.37c.59.26,1.61.68,3.09,1.26a30.51,30.51,0,0,0,4.66,1.45,22.55,22.55,0,0,0,5.11.57q8.94,0,13.17-3.84T388,165.47V164q-6.76,8.46-21.09,8.46a22.47,22.47,0,0,1-12-3.19,21.6,21.6,0,0,1-8.07-8.85,28.34,28.34,0,0,1-2.86-13V110.24a7.52,7.52,0,0,1,2.12-5.44,7.7,7.7,0,0,1,10.76,0,7.52,7.52,0,0,1,2.12,5.44V143c0,5.41,1.18,9.31,3.55,11.67s5.83,3.55,10.39,3.55,7.93-1.31,10.38-3.93S387,147.94,387,143V110.49a8,8,0,0,1,2.27-5.8A7.67,7.67,0,0,1,395,102.36Zm90.07,34.46a36.61,36.61,0,0,1-4.61,18.37,32.52,32.52,0,0,1-12.61,12.61,36.93,36.93,0,0,1-35.26,0,32.68,32.68,0,0,1-12.54-12.61,38.89,38.89,0,0,1,0-36.73,33.14,33.14,0,0,1,12.54-12.68,36.5,36.5,0,0,1,35.26,0,33,33,0,0,1,12.61,12.68A36.57,36.57,0,0,1,485.07,136.82Zm-15.36,0a23.47,23.47,0,0,0-2.62-11.2,19.35,19.35,0,0,0-7-7.61,19.18,19.18,0,0,0-19.59,0,19.35,19.35,0,0,0-7,7.61,23.47,23.47,0,0,0-2.62,11.2A23.06,23.06,0,0,0,433.42,148a19.45,19.45,0,0,0,7,7.55,19.18,19.18,0,0,0,19.59,0,19.45,19.45,0,0,0,7-7.55A23.06,23.06,0,0,0,469.71,136.82Zm35,34.18a7.57,7.57,0,0,1-5.69-2,8,8,0,0,1-2-5.84v-2.24a8,8,0,0,1,2-5.84,7.57,7.57,0,0,1,5.69-2h1.66a7.57,7.57,0,0,1,5.69,2,8,8,0,0,1,2,5.84v2.24a8,8,0,0,1-2,5.84,7.57,7.57,0,0,1-5.69,2Z" transform="translate(-87.26 -54.19)" style="fill:#6a2d97"/></g></g></g><text transform="translate(0 109.81)" style="isolation:isolate;font-size:128px;fill:#6a2d97;font-family:Arial-BoldMT, Arial;font-weight:700">Radyo.</text><g style="clip-path:url(#e)"><g style="filter:url(#f)"><g style="clip-path:url(#g)"><path d="M585.85,101.24a7.45,7.45,0,0,1,5.5,2.18,7.61,7.61,0,0,1,2.18,5.63v54.14a7.68,7.68,0,0,1-2.18,5.57,7.35,7.35,0,0,1-5.5,2.24,7.25,7.25,0,0,1-5.44-2.18,8,8,0,0,1-2.24-5.5,26.49,26.49,0,0,1-8.64,6.34,26.06,26.06,0,0,1-11.46,2.62,29.25,29.25,0,0,1-16-4.54,32,32,0,0,1-11.33-12.61,39.41,39.41,0,0,1-4.16-18.31,40.22,40.22,0,0,1,4.1-18.36,31.46,31.46,0,0,1,11.2-12.68,28.5,28.5,0,0,1,15.68-4.54,29.68,29.68,0,0,1,11.52,2.24,30.2,30.2,0,0,1,9.09,5.7v-.13a7.67,7.67,0,0,1,2.17-5.57A7.37,7.37,0,0,1,585.85,101.24ZM560,158.2a17.1,17.1,0,0,0,13.57-6.08q5.25-6.08,5.25-15.3t-5.25-15.36a17.92,17.92,0,0,0-27,0q-5.25,6.15-5.25,15.36t5.19,15.3A16.91,16.91,0,0,0,560,158.2Zm65.11,5a7.68,7.68,0,0,1-2.18,5.57,7.88,7.88,0,0,1-11,0,7.67,7.67,0,0,1-2.17-5.57V110.33a7.67,7.67,0,0,1,2.17-5.57,7.88,7.88,0,0,1,11,0,7.68,7.68,0,0,1,2.18,5.57Zm-7.81-69q-4.35,0-6.15-1.41t-1.79-5V85.37c0-2.39.64-4.06,1.92-5S614.6,79,617.42,79q4.47,0,6.27,1.41c1.19.93,1.79,2.6,1.79,5V87.8q0,3.7-1.86,5.06T617.29,94.2Z" transform="translate(-87.26 -54.19)" style="fill:#6a2d97"/></g></g></g><text transform="translate(434.84 109.81)" style="isolation:isolate;font-size:128px;fill:#6a2d97;font-family:Arial-BoldMT, Arial;font-weight:700">ai</text></g></svg>